<svg width="74" height="126" viewBox="0 0 74 126" fill="none" xmlns="http://www.w3.org/2000/svg">
<path d="M61.4634 9.05469H36.0522C29.541 9.05469 23.257 11.4516 18.3999 15.7881C7.60059 25.4303 6.53656 41.9549 16.0103 52.9023L46.8257 88.5098C48.4572 90.3955 48.2512 93.248 46.3657 94.8799C44.48 96.5116 41.6276 96.3055 39.9956 94.4199L9.18115 58.8115C-3.52041 44.1337 -2.0938 21.9795 12.3853 9.05176C18.8974 3.23749 27.3222 0.0234375 36.0522 0.0234375H70.3579L61.4634 9.05469Z" fill="#FF7655"/>
<path d="M28.0371 30.4753C29.9229 28.8437 32.7753 29.0497 34.4072 30.9353L65.2217 66.5437C77.9232 81.2215 76.4965 103.376 62.0176 116.303C55.5054 122.118 47.0807 125.332 38.3506 125.332H4.0498L12.9443 116.301H38.3506C44.862 116.301 51.1458 113.904 56.0029 109.567C66.8021 99.9249 67.8662 83.4003 58.3926 72.4529L27.5771 36.8455C25.9454 34.9596 26.1514 32.1072 28.0371 30.4753Z" fill="#F5F5F5"/>
</svg>
