<svg width="289" height="289" viewBox="0 0 289 289" fill="none" xmlns="http://www.w3.org/2000/svg">
<rect width="289" height="289" fill="#0B1B54"/>
<path d="M174.241 73.3545H141.261C132.811 73.3547 124.656 76.4649 118.353 82.0928C104.339 94.6064 102.958 116.052 115.253 130.259L155.243 176.47C157.361 178.917 157.094 182.618 154.646 184.736C152.199 186.853 148.498 186.586 146.381 184.14L106.389 137.929C89.9052 118.88 91.7572 90.1282 110.548 73.3506C118.999 65.8049 129.932 61.634 141.261 61.6338H185.784L174.241 73.3545Z" fill="#FF7655"/>
<path d="M130.861 101.154C133.309 99.0367 137.009 99.3039 139.127 101.751L179.118 147.962C195.602 167.011 193.751 195.762 174.96 212.54C166.509 220.086 155.576 224.257 144.246 224.257H99.7295L111.272 212.536H144.246C152.696 212.536 160.851 209.426 167.154 203.798C181.169 191.284 182.55 169.839 170.255 155.632L130.265 109.421C128.147 106.974 128.414 103.272 130.861 101.154Z" fill="#F5F5F5"/>
</svg>
