<svg width="500" height="80" viewBox="0 0 500 80" fill="none" xmlns="http://www.w3.org/2000/svg">
<path fill-rule="evenodd" clip-rule="evenodd" d="M0 0H6.65V80H0V0ZM13.3 0H26.6V80H13.3V0ZM39.9 0H46.55V80H39.9V0ZM53.2 0H73.15V80H53.2V0ZM79.8 0H86.45V80H79.8V0ZM99.75 0H106.4V80H99.75V0ZM113.05 0H119.7V80H113.05V0ZM126.35 0H133V80H126.35V0Z" fill="#0B1B54"/>
<path fill-rule="evenodd" clip-rule="evenodd" d="M275 80H268.35V0H275V80ZM261.7 80H248.4V0H261.7V80ZM235.1 80H228.45V0H235.1V80ZM221.8 80L201.85 80V0L221.8 0V80ZM195.2 80H188.55V0H195.2V80ZM175.25 80H168.6V0H175.25V80ZM161.95 80H155.3V0H161.95V80ZM148.65 80H142V0H148.65V80Z" fill="#0B1B54"/>
<path fill-rule="evenodd" clip-rule="evenodd" d="M412 80H405.35V0H412V80ZM398.7 80H385.4V0H398.7V80ZM372.1 80H365.45V0H372.1V80ZM358.8 80L338.85 80V0L358.8 0V80ZM332.2 80H325.55V0H332.2V80ZM312.25 80H305.6V0H312.25V80ZM298.95 80H292.3V0H298.95V80ZM285.65 80H279V0H285.65V80Z" fill="#0B1B54"/>
<path fill-rule="evenodd" clip-rule="evenodd" d="M367 0L373.65 0V80H367V0ZM380.3 0L393.6 0V80H380.3V0ZM406.9 0L413.55 0V80H406.9V0ZM420.2 0L440.15 0V80H420.2V0ZM446.8 0L453.45 0V80H446.8V0ZM466.75 0L473.4 0V80H466.75V0ZM480.05 0L486.7 0V80H480.05V0ZM493.35 0L500 0V80H493.35V0Z" fill="#0B1B54"/>
</svg>
