<svg width="39" height="39" viewBox="0 0 39 39" fill="none" xmlns="http://www.w3.org/2000/svg">
<path d="M12.7598 28.1985H8.83936V37.9999H12.7598V28.1985Z" fill="#F5F5F5"/>
<path d="M20.6008 24.2779H16.6803V37.9999H20.6008V24.2779Z" fill="#F5F5F5"/>
<path d="M24.5213 37.9999V20.3573H28.4418V37.9999H24.5213Z" fill="#F5F5F5"/>
<path d="M32.3623 37.9999V16.4368H36.2828V37.9999H32.3623Z" fill="#F5F5F5"/>
<path d="M12.7598 28.1985H8.83936V37.9999H12.7598V28.1985Z" stroke="#F5F5F5"/>
<path d="M20.6008 24.2779H16.6803V37.9999H20.6008V24.2779Z" stroke="#F5F5F5"/>
<path d="M24.5213 37.9999V20.3573H28.4418V37.9999H24.5213Z" stroke="#F5F5F5"/>
<path d="M32.3623 37.9999V16.4368H36.2828V37.9999H32.3623Z" stroke="#F5F5F5"/>
<path d="M4.1846 25.5036L1.48926 22.5631L10.8004 13.9869L13.4958 16.4373L21.8268 8.84114L24.7672 11.2915L30.8929 5.65568L27.7075 2.22518L38.2439 1L36.7737 11.2915L33.3432 8.10604L24.7672 16.9273L21.8268 13.9869L13.4958 22.0731L10.5554 19.3777L4.1846 25.5036Z" fill="#F5F5F5" stroke="#F5F5F5"/>
<path d="M4.91951 32.1169H0.999023V37.9978H4.91951V32.1169Z" fill="#F5F5F5" stroke="#F5F5F5"/>
</svg>
