<svg width="40" height="40" viewBox="0 0 40 40" fill="none" xmlns="http://www.w3.org/2000/svg">
<path d="M37.9037 0.988609L39.0007 2.07379C40.5124 3.57098 40.2837 6.22507 38.4857 8.00183L15.8625 30.3805L8.53275 33.0328C7.61235 33.3675 6.71612 32.9334 6.5339 32.0671C6.47252 31.7529 6.50151 31.4279 6.61758 31.1291L9.35088 23.8161L31.9109 1.49809C33.7089 -0.278664 36.392 -0.508575 37.9037 0.988609ZM14.8751 3.21415C15.1193 3.21415 15.3611 3.26173 15.5867 3.35416C15.8123 3.44659 16.0173 3.58207 16.1899 3.75287C16.3626 3.92366 16.4995 4.12642 16.593 4.34958C16.6864 4.57273 16.7345 4.81191 16.7345 5.05344C16.7345 5.29498 16.6864 5.53416 16.593 5.75731C16.4995 5.98046 16.3626 6.18323 16.1899 6.35402C16.0173 6.52482 15.8123 6.6603 15.5867 6.75273C15.3611 6.84516 15.1193 6.89274 14.8751 6.89274H7.43757C6.45128 6.89274 5.5054 7.2803 4.80799 7.97017C4.11058 8.66004 3.71878 9.5957 3.71878 10.5713V32.6428C3.71878 33.6185 4.11058 34.5541 4.80799 35.244C5.5054 35.9338 6.45128 36.3214 7.43757 36.3214H29.7503C30.7365 36.3214 31.6824 35.9338 32.3798 35.244C33.0773 34.5541 33.4691 33.6185 33.4691 32.6428V25.2857C33.4691 24.7978 33.665 24.33 34.0137 23.9851C34.3624 23.6402 34.8353 23.4464 35.3284 23.4464C35.8216 23.4464 36.2945 23.6402 36.6432 23.9851C36.9919 24.33 37.1878 24.7978 37.1878 25.2857V32.6428C37.1878 34.5941 36.4042 36.4654 35.0094 37.8451C33.6146 39.2249 31.7228 40 29.7503 40H7.43757C5.465 40 3.57323 39.2249 2.17841 37.8451C0.783599 36.4654 0 34.5941 0 32.6428V10.5713C0 8.62008 0.783599 6.74875 2.17841 5.36902C3.57323 3.98928 5.465 3.21415 7.43757 3.21415H14.8751Z" fill="#0B1B54"/>
</svg>
