<svg width="41" height="41" viewBox="0 0 41 41" fill="none" xmlns="http://www.w3.org/2000/svg">
<path d="M38.3037 1.00996L39.4123 2.11858C40.94 3.6481 40.7089 6.35951 38.8919 8.17464L16.0299 31.0366L8.6228 33.7462C7.69269 34.0881 6.787 33.6447 6.60286 32.7597C6.54083 32.4386 6.57013 32.1066 6.68741 31.8014L9.44957 24.3304L32.2477 1.53045C34.0647 -0.284682 36.7761 -0.519559 38.3037 1.00996ZM15.0321 3.28357C15.2789 3.28357 15.5232 3.33217 15.7512 3.4266C15.9792 3.52103 16.1863 3.65944 16.3608 3.83392C16.5353 4.0084 16.6737 4.21554 16.7681 4.44351C16.8625 4.67149 16.9111 4.91583 16.9111 5.16258C16.9111 5.40934 16.8625 5.65368 16.7681 5.88165C16.6737 6.10962 16.5353 6.31676 16.3608 6.49125C16.1863 6.66573 15.9792 6.80414 15.7512 6.89857C15.5232 6.99299 15.2789 7.0416 15.0321 7.0416H7.51606C6.51937 7.0416 5.5635 7.43753 4.85873 8.1423C4.15396 8.84706 3.75803 9.80293 3.75803 10.7996V33.3478C3.75803 34.3445 4.15396 35.3004 4.85873 36.0051C5.5635 36.7099 6.51937 37.1058 7.51606 37.1058H30.0642C31.0609 37.1058 32.0168 36.7099 32.7216 36.0051C33.4263 35.3004 33.8223 34.3445 33.8223 33.3478V25.8317C33.8223 25.3334 34.0202 24.8555 34.3726 24.5031C34.725 24.1507 35.2029 23.9527 35.7013 23.9527C36.1996 23.9527 36.6776 24.1507 37.0299 24.5031C37.3823 24.8555 37.5803 25.3334 37.5803 25.8317V33.3478C37.5803 35.3412 36.7884 37.2529 35.3789 38.6625C33.9694 40.072 32.0576 40.8639 30.0642 40.8639H7.51606C5.52268 40.8639 3.61094 40.072 2.2014 38.6625C0.791868 37.2529 0 35.3412 0 33.3478V10.7996C0 8.80624 0.791868 6.8945 2.2014 5.48497C3.61094 4.07544 5.52268 3.28357 7.51606 3.28357H15.0321Z" fill="#F5F5F5"/>
</svg>
