<svg width="39" height="39" viewBox="0 0 39 39" fill="none" xmlns="http://www.w3.org/2000/svg">
<path fill-rule="evenodd" clip-rule="evenodd" d="M18.2774 0.0159862C18.1529 0.0306221 17.7282 0.0745295 17.3352 0.113558C12.7635 0.569708 8.15769 2.92607 5.04319 6.40452C1.59918 10.2513 -0.150894 15.025 0.0102005 20.111C0.290896 28.8949 6.33195 36.3323 14.9017 38.4496C19.9274 39.6912 25.4534 38.8058 29.8322 36.0591C34.2013 33.3149 37.2597 29.0876 38.4825 24.0968C38.9024 22.3868 39 21.516 39 19.4938C39 17.4716 38.9024 16.6008 38.4825 14.8909C36.5494 6.99971 30.047 1.19417 21.9557 0.135512C21.2625 0.0452579 18.7411 -0.0352391 18.2774 0.0159862ZM21.5969 3.79203C24.316 4.14329 26.8618 5.18975 29.1415 6.89238C29.9445 7.49245 31.5237 9.07068 32.1242 9.87321C33.4935 11.7051 34.5064 13.859 34.9653 15.9202C35.4877 18.2742 35.4877 20.7135 34.9653 23.0674C33.9548 27.6069 30.7549 31.6367 26.5127 33.7101C24.9799 34.4589 23.3982 34.9492 21.6628 35.2127C20.6279 35.3712 18.4018 35.3712 17.3669 35.2127C12.6122 34.4907 8.59948 31.8977 6.07322 27.9119C5.55088 27.0898 4.86745 25.6555 4.52573 24.6627C3.93749 22.9625 3.68365 21.3989 3.68365 19.4938C3.68365 16.9594 4.17426 14.7982 5.26042 12.5662C6.09031 10.8636 6.93483 9.68782 8.31878 8.30474C9.70273 6.92165 10.8792 6.07765 12.5829 5.24829C15.3972 3.87984 18.458 3.3871 21.5969 3.79203ZM18.7973 10.444C18.2505 10.6221 17.9405 10.9343 17.7892 11.4563C17.7013 11.7539 17.6916 12.4345 17.7062 16.6057C17.7257 21.4111 17.7257 21.4136 17.8673 21.6794C18.0455 22.0136 18.3872 22.3161 18.7118 22.4307C19.034 22.543 19.9957 22.543 20.3179 22.4307C20.6425 22.3161 20.9842 22.0136 21.1624 21.6794C21.304 21.4136 21.304 21.4111 21.3235 16.6057C21.343 11.3563 21.343 11.3514 20.9696 10.9099C20.6669 10.5489 20.3423 10.4294 19.6125 10.4099C19.2537 10.4001 18.8876 10.4147 18.7973 10.444ZM18.9925 25.6653C18.5312 25.8165 18.0748 26.2092 17.8527 26.6459C17.6818 26.9874 17.6525 27.6045 17.7916 28.0192C18.0211 28.7144 18.7753 29.251 19.5149 29.251C20.2544 29.251 21.0087 28.7144 21.2381 28.0192C21.3772 27.6045 21.3479 26.9874 21.1771 26.6459C21.0184 26.3336 20.6376 25.9482 20.3277 25.7872C20.0445 25.6409 19.2805 25.5701 18.9925 25.6653Z" fill="#D20D0D"/>
</svg>
