<svg width="42" height="47" viewBox="0 0 42 47" fill="none" xmlns="http://www.w3.org/2000/svg">
<path fill-rule="evenodd" clip-rule="evenodd" d="M28.6977 0C29.0403 -7.21982e-09 29.3795 0.0674811 29.6961 0.19859C30.0126 0.329698 30.3002 0.521866 30.5424 0.764123C30.7847 1.00638 30.9769 1.29398 31.108 1.61051C31.2391 1.92703 31.3066 2.26628 31.3066 2.60888C31.3066 2.95148 31.2391 3.29073 31.108 3.60725C30.9769 3.92378 30.7847 4.21138 30.5424 4.45364C30.3002 4.69589 30.0126 4.88806 29.6961 5.01917C29.3795 5.15028 29.0403 5.21776 28.6977 5.21776H5.21776V39.1332C5.21776 39.8251 5.49262 40.4887 5.98188 40.978C6.47114 41.4672 7.13472 41.7421 7.82664 41.7421H28.6977C29.3896 41.7421 30.0532 42.0169 30.5424 42.5062C31.0317 42.9955 31.3066 43.659 31.3066 44.351C31.3066 45.0429 31.0317 45.7065 30.5424 46.1957C30.0532 46.685 29.3896 46.9598 28.6977 46.9598H7.82664C5.75089 46.9598 3.76015 46.1352 2.29237 44.6675C0.82459 43.1997 0 41.209 0 39.1332V2.60888C0 1.91696 0.274864 1.25338 0.764124 0.764124C1.25338 0.274864 1.91696 0 2.60888 0H28.6977ZM33.151 13.8088C32.7863 13.4442 32.3218 13.1959 31.816 13.0952C31.3103 12.9945 30.786 13.0459 30.3095 13.243C29.8329 13.4401 29.4255 13.774 29.1386 14.2025C28.8517 14.6311 28.6983 15.135 28.6977 15.6507V20.8684H13.0444C12.3525 20.8684 11.6889 21.1433 11.1996 21.6326C10.7104 22.1218 10.4355 22.7854 10.4355 23.4773C10.4355 24.1692 10.7104 24.8328 11.1996 25.3221C11.6889 25.8113 12.3525 26.0862 13.0444 26.0862H28.6977V31.3039C28.6978 31.8199 28.8509 32.3241 29.1375 32.7531C29.4242 33.182 29.8316 33.5163 30.3083 33.7137C30.7849 33.9111 31.3094 33.9628 31.8154 33.8622C32.3214 33.7616 32.7862 33.5132 33.151 33.1484L40.9777 25.3218C41.4668 24.8325 41.7415 24.1691 41.7415 23.4773C41.7415 22.7855 41.4668 22.1221 40.9777 21.6328L33.151 13.8088Z" fill="#FF7655"/>
</svg>
