<svg width="35" height="39" viewBox="0 0 35 39" fill="none" xmlns="http://www.w3.org/2000/svg">
<path d="M4.375 39C3.17188 39 2.14229 38.5639 1.28625 37.6918C0.42875 36.8182 0 35.7686 0 34.5429V14.4857C0 13.78 0.155312 13.1114 0.465937 12.48C0.775104 11.8486 1.20313 11.3286 1.75 10.92L14.875 0.891429C15.276 0.594286 15.6953 0.371428 16.1328 0.222857C16.5703 0.0742855 17.026 0 17.5 0C17.974 0 18.4297 0.0742855 18.8672 0.222857C19.3047 0.371428 19.724 0.594286 20.125 0.891429L33.25 10.92C33.7969 11.3286 34.2256 11.8486 34.5363 12.48C34.8454 13.1114 35 13.78 35 14.4857V34.5429C35 35.7686 34.572 36.8182 33.7159 37.6918C32.8584 38.5639 31.8281 39 30.625 39H21.875V23.4H13.125V39H4.375Z" fill="#F5F5F5"/>
</svg>
