<svg width="58" height="58" viewBox="0 0 58 58" fill="none" xmlns="http://www.w3.org/2000/svg">
<path fill-rule="evenodd" clip-rule="evenodd" d="M28.6787 6.37304C25.7495 6.37304 22.8489 6.94999 20.1427 8.07095C17.4364 9.19192 14.9775 10.8349 12.9062 12.9062C10.8349 14.9775 9.19192 17.4364 8.07095 20.1427C6.94999 22.8489 6.37304 25.7495 6.37304 28.6787C6.37304 31.6079 6.94999 34.5084 8.07095 37.2147C9.19192 39.9209 10.8349 42.3799 12.9062 44.4511C14.9775 46.5224 17.4364 48.1654 20.1427 49.2864C22.8489 50.4074 25.7495 50.9843 28.6787 50.9843C34.5945 50.9843 40.268 48.6343 44.4511 44.4511C48.6343 40.268 50.9843 34.5945 50.9843 28.6787C50.9843 22.7628 48.6343 17.0893 44.4511 12.9062C40.268 8.72309 34.5945 6.37304 28.6787 6.37304ZM0 28.6787C0 21.0726 3.02149 13.7781 8.39979 8.39979C13.7781 3.02149 21.0726 0 28.6787 0C36.2847 0 43.5793 3.02149 48.9576 8.39979C54.3358 13.7781 57.3573 21.0726 57.3573 28.6787C57.3573 36.2847 54.3358 43.5793 48.9576 48.9576C43.5793 54.3358 36.2847 57.3573 28.6787 57.3573C21.0726 57.3573 13.7781 54.3358 8.39979 48.9576C3.02149 43.5793 0 36.2847 0 28.6787ZM25.4922 15.9326C25.4922 15.0875 25.8279 14.277 26.4255 13.6794C27.0231 13.0818 27.8336 12.7461 28.6787 12.7461H28.7105C29.5557 12.7461 30.3662 13.0818 30.9637 13.6794C31.5613 14.277 31.8971 15.0875 31.8971 15.9326C31.8971 16.7777 31.5613 17.5882 30.9637 18.1858C30.3662 18.7834 29.5557 19.1191 28.7105 19.1191H28.6787C27.8336 19.1191 27.0231 18.7834 26.4255 18.1858C25.8279 17.5882 25.4922 16.7777 25.4922 15.9326ZM25.524 41.4247C25.524 42.2699 25.8597 43.0804 26.4573 43.678C27.0549 44.2755 27.8654 44.6113 28.7105 44.6113C29.5557 44.6113 30.3662 44.2755 30.9637 43.678C31.5613 43.0804 31.8971 42.2699 31.8971 41.4247V25.4922C31.8971 24.647 31.5613 23.8365 30.9637 23.2389C30.3662 22.6414 29.5557 22.3056 28.7105 22.3056C27.8654 22.3056 27.0549 22.6414 26.4573 23.2389C25.8597 23.8365 25.524 24.647 25.524 25.4922V41.4247Z" fill="#F5F5F5"/>
</svg>
