<svg width="35" height="35" viewBox="0 0 35 35" fill="none" xmlns="http://www.w3.org/2000/svg">
<path opacity="0.1" fill-rule="evenodd" clip-rule="evenodd" d="M17.5 5C14.1848 5 11.0054 6.31696 8.66117 8.66117C6.31696 11.0054 5 14.1848 5 17.5C5 20.8152 6.31696 23.9946 8.66117 26.3388C11.0054 28.683 14.1848 30 17.5 30C20.8152 30 23.9946 28.683 26.3388 26.3388C28.683 23.9946 30 20.8152 30 17.5C30 14.1848 28.683 11.0054 26.3388 8.66117C23.9946 6.31696 20.8152 5 17.5 5ZM0 17.5C0 7.835 7.835 0 17.5 0C27.165 0 35 7.835 35 17.5C35 27.165 27.165 35 17.5 35C7.835 35 0 27.165 0 17.5Z" fill="#0B1B54"/>
<path fill-rule="evenodd" clip-rule="evenodd" d="M17.5001 5.00002C14.2774 4.99312 11.1779 6.23781 8.85505 8.47168C8.37385 8.91661 7.73717 9.15478 7.08209 9.13493C6.42701 9.11507 5.80593 8.83877 5.35255 8.36551C4.89918 7.89226 4.64978 7.25989 4.65804 6.60457C4.6663 5.94924 4.93156 5.32336 5.39672 4.86168C8.65011 1.73608 12.9885 -0.00657277 17.5001 1.86305e-05C18.1631 1.86305e-05 18.799 0.263411 19.2678 0.732252C19.7367 1.20109 20.0001 1.83698 20.0001 2.50002C20.0001 3.16306 19.7367 3.79894 19.2678 4.26779C18.799 4.73663 18.1631 5.00002 17.5001 5.00002Z" fill="#0B1B54"/>
</svg>
