<svg width="123" height="35" viewBox="0 0 123 35" fill="none" xmlns="http://www.w3.org/2000/svg">
<path d="M0.876736 34.3047V10.5977H4.08283V34.3047H0.876736ZM2.50236 5.35953C1.84007 5.35953 1.28314 5.13375 0.83158 4.68219C0.380017 4.23063 0.154236 3.68875 0.154236 3.05656C0.154236 2.42438 0.380017 1.89755 0.83158 1.47609C1.28314 1.02453 1.84007 0.798752 2.50236 0.798752C3.16465 0.798752 3.72158 1.00948 4.17314 1.43094C4.6247 1.8524 4.85049 2.37922 4.85049 3.01141C4.85049 3.6737 4.6247 4.23063 4.17314 4.68219C3.75168 5.13375 3.19476 5.35953 2.50236 5.35953Z" fill="#FF7655"/>
<path d="M17.5193 34.3047V10.5977H20.5899V17.1002L20.0932 15.8809C20.8458 14.165 22.05 12.8254 23.7057 11.862C25.3614 10.8686 27.3332 10.3719 29.6212 10.3719C31.5478 10.3719 33.2337 10.7482 34.6787 11.5008C36.1538 12.2233 37.2977 13.3371 38.1105 14.8423C38.9535 16.3476 39.3749 18.2441 39.3749 20.532V34.3047H36.1688V20.8481C36.1688 18.3495 35.5366 16.468 34.2723 15.2036C33.038 13.9091 31.2919 13.2619 29.0341 13.2619C27.3483 13.2619 25.8732 13.6081 24.6088 14.3005C23.3745 14.9628 22.4112 15.9411 21.7188 17.2356C21.0565 18.5 20.7254 20.0353 20.7254 21.8416V34.3047H17.5193Z" fill="#FF7655"/>
<path d="M67.4071 34.3047V29.0666L67.2716 28.2086V19.4483C67.2716 17.4313 66.6996 15.8809 65.5557 14.7972C64.4418 13.7134 62.771 13.1716 60.5433 13.1716C59.008 13.1716 57.5479 13.4275 56.1632 13.9392C54.7784 14.451 53.6043 15.1283 52.641 15.9713L51.196 13.578C52.4001 12.5544 53.8451 11.7717 55.531 11.2298C57.2168 10.6579 58.9929 10.3719 60.8594 10.3719C63.93 10.3719 66.2932 11.1395 67.9489 12.6748C69.6348 14.1801 70.4777 16.483 70.4777 19.5838V34.3047H67.4071ZM59.2338 34.5305C57.4576 34.5305 55.9073 34.2445 54.5827 33.6725C53.2882 33.0704 52.2948 32.2576 51.6024 31.2341C50.91 30.1804 50.5638 28.9763 50.5638 27.6216C50.5638 26.3873 50.8498 25.2734 51.4217 24.28C52.0238 23.2565 52.9872 22.4436 54.3117 21.8416C55.6664 21.2094 57.4727 20.8933 59.7305 20.8933H67.9038V23.2866H59.8208C57.5329 23.2866 55.9374 23.693 55.0342 24.5058C54.1612 25.3186 53.7247 26.3271 53.7247 27.5313C53.7247 28.8859 54.2515 29.9697 55.3052 30.7825C56.3588 31.5953 57.8339 32.0017 59.7305 32.0017C61.5368 32.0017 63.0871 31.5953 64.3816 30.7825C65.7062 29.9396 66.6695 28.7354 67.2716 27.17L67.9941 29.3827C67.392 30.9481 66.3384 32.1974 64.8332 33.1306C63.358 34.0639 61.4916 34.5305 59.2338 34.5305Z" fill="#F5F5F5"/>
<path d="M83.7014 34.3047V10.5977H86.772V17.055L86.4559 15.9261C87.1182 14.1198 88.2321 12.7501 89.7975 11.8169C91.3629 10.8535 93.3046 10.3719 95.6227 10.3719V13.4877C95.5023 13.4877 95.3818 13.4877 95.2614 13.4877C95.141 13.4576 95.0206 13.4425 94.9002 13.4425C92.4015 13.4425 90.4447 14.2102 89.0298 15.7455C87.615 17.2507 86.9075 19.4031 86.9075 22.2028V34.3047H83.7014Z" fill="#F5F5F5"/>
<path d="M119.346 34.3047V29.0666L119.21 28.2086V19.4483C119.21 17.4313 118.638 15.8809 117.494 14.7972C116.38 13.7134 114.71 13.1716 112.482 13.1716C110.947 13.1716 109.486 13.4275 108.102 13.9392C106.717 14.451 105.543 15.1283 104.579 15.9713L103.134 13.578C104.339 12.5544 105.784 11.7717 107.469 11.2298C109.155 10.6579 110.931 10.3719 112.798 10.3719C115.869 10.3719 118.232 11.1395 119.887 12.6748C121.573 14.1801 122.416 16.483 122.416 19.5838V34.3047H119.346ZM111.172 34.5305C109.396 34.5305 107.846 34.2445 106.521 33.6725C105.227 33.0704 104.233 32.2576 103.541 31.2341C102.848 30.1804 102.502 28.9763 102.502 27.6216C102.502 26.3873 102.788 25.2734 103.36 24.28C103.962 23.2565 104.926 22.4436 106.25 21.8416C107.605 21.2094 109.411 20.8933 111.669 20.8933H119.842V23.2866H111.759C109.471 23.2866 107.876 23.693 106.973 24.5058C106.1 25.3186 105.663 26.3271 105.663 27.5313C105.663 28.8859 106.19 29.9697 107.244 30.7825C108.297 31.5953 109.772 32.0017 111.669 32.0017C113.475 32.0017 115.026 31.5953 116.32 30.7825C117.645 29.9396 118.608 28.7354 119.21 27.17L119.933 29.3827C119.331 30.9481 118.277 32.1974 116.772 33.1306C115.297 34.0639 113.43 34.5305 111.172 34.5305Z" fill="#F5F5F5"/>
</svg>
