<svg width="34" height="34" viewBox="0 0 34 34" fill="none" xmlns="http://www.w3.org/2000/svg">
<path d="M22.8568 24.686L17.7406 19.5677C17.5537 19.3806 17.3327 19.3466 17.2137 19.3466C17.0948 19.3466 16.8738 19.3806 16.6868 19.5677L11.5536 24.703C10.9757 25.2812 10.0749 26.2164 7.06636 26.2164L13.3723 32.5081C14.3284 33.4634 15.6245 34 16.9758 34C18.3271 34 19.6231 33.4634 20.5792 32.5081L26.9022 26.1994C25.3554 26.1994 24.0636 25.8933 22.8568 24.686ZM11.5536 9.29697L16.6868 14.4323C16.8228 14.5684 17.0268 14.6534 17.2137 14.6534C17.4007 14.6534 17.6047 14.5684 17.7406 14.4323L22.8228 9.34798C24.0296 8.08965 25.4064 7.80057 26.9532 7.80057L20.6302 1.49191C19.6741 0.536591 18.3781 0 17.0268 0C15.6755 0 14.3794 0.536591 13.4233 1.49191L7.11735 7.78357C10.1089 7.78357 11.0267 8.76983 11.5536 9.29697Z" fill="#F5F5F5"/>
<path d="M32.4773 13.3441L28.6529 9.50106H26.5113C25.5934 9.50106 24.6756 9.87516 24.0467 10.5383L18.9475 15.6397C18.4716 16.1158 17.8427 16.3539 17.2138 16.3539C16.5661 16.3447 15.9463 16.0894 15.48 15.6397L10.3469 10.4873C9.70096 9.84115 8.8171 9.46705 7.88225 9.46705H5.38365L1.49127 13.3781C0.536363 14.3346 0 15.6312 0 16.983C0 18.3349 0.536363 19.6315 1.49127 20.588L5.38365 24.499H7.89925C8.8171 24.499 9.70096 24.1249 10.3639 23.4787L15.497 18.3434C15.973 17.8673 16.6019 17.6292 17.2308 17.6292C17.8597 17.6292 18.4885 17.8673 18.9645 18.3434L24.0807 23.4617C24.7265 24.1079 25.6104 24.482 26.5453 24.482H28.6869L32.5113 20.639C33.4711 19.6657 34.0063 18.3517 33.9999 16.9845C33.9936 15.6173 33.4461 14.3084 32.4773 13.3441Z" fill="#F5F5F5"/>
</svg>
