<svg width="49" height="57" viewBox="0 0 49 57" fill="none" xmlns="http://www.w3.org/2000/svg">
<path d="M5.39872 56.6866C3.91407 56.6866 2.64358 56.1584 1.58723 55.1021C0.530875 54.0457 0.00179957 52.7743 0 51.2879V24.2943C0 22.8096 0.529075 21.5391 1.58723 20.4828C2.64538 19.4264 3.91587 18.8973 5.39872 18.8955H16.1962V24.2943H5.39872V51.2879H43.1898V24.2943H32.3923V18.8955H43.1898C44.6744 18.8955 45.9458 19.4246 47.004 20.4828C48.0621 21.5409 48.5903 22.8114 48.5885 24.2943V51.2879C48.5885 52.7725 48.0603 54.0439 47.004 55.1021C45.9476 56.1602 44.6762 56.6884 43.1898 56.6866H5.39872ZM24.2943 43.1898L13.4968 32.3923L17.2759 28.6132L21.5949 32.8647V0H26.9936V32.8647L31.3126 28.6132L35.0917 32.3923L24.2943 43.1898Z" fill="#F5F5F5"/>
</svg>
