<svg width="43" height="43" viewBox="0 0 43 43" fill="none" xmlns="http://www.w3.org/2000/svg">
<path d="M30.3472 26.7056H28.4293L27.7495 26.0501C30.2112 23.1952 31.564 19.5502 31.5611 15.7806C31.5611 12.6595 30.6356 9.60846 28.9016 7.01336C27.1676 4.41826 24.7031 2.39562 21.8195 1.20123C18.936 0.00683747 15.7631 -0.30567 12.7019 0.303226C9.64081 0.912123 6.82898 2.41508 4.62203 4.62203C2.41508 6.82898 0.912123 9.64081 0.303226 12.7019C-0.30567 15.7631 0.00683747 18.936 1.20123 21.8195C2.39562 24.7031 4.41826 27.1676 7.01336 28.9016C9.60846 30.6356 12.6595 31.5611 15.7806 31.5611C19.6893 31.5611 23.2824 30.1287 26.0501 27.7495L26.7056 28.4293V30.3472L38.8445 42.4619L42.4619 38.8445L30.3472 26.7056ZM15.7806 26.7056C9.7354 26.7056 4.85557 21.8257 4.85557 15.7806C4.85557 9.7354 9.7354 4.85557 15.7806 4.85557C21.8257 4.85557 26.7056 9.7354 26.7056 15.7806C26.7056 21.8257 21.8257 26.7056 15.7806 26.7056Z" fill="#8193B1"/>
</svg>
