<svg width="39" height="39" viewBox="0 0 39 39" fill="none" xmlns="http://www.w3.org/2000/svg">
<path d="M38.886 30.076C39 28.682 39 26.95 39 24.766V16H15V39H24.766C26.95 39 28.682 39 30.076 38.886C31.504 38.77 32.71 38.526 33.814 37.966C35.601 37.0548 37.0537 35.6014 37.964 33.814C38.526 32.71 38.77 31.504 38.886 30.076ZM30.076 0.114C28.682 -1.51857e-07 26.95 0 24.766 0H15V13H39C38.996 11.384 38.978 10.046 38.886 8.924C38.77 7.496 38.526 6.29 37.966 5.188C37.0552 3.40028 35.6017 1.94683 33.814 1.036C32.71 0.474 31.504 0.23 30.076 0.114ZM1.036 5.188C0.474 6.288 0.23 7.496 0.114 8.924C0.0219998 10.044 0.004 11.384 0 13H12V0.00600004C10.82 0.016 9.806 0.0419999 8.924 0.114C7.496 0.23 6.29 0.474 5.188 1.034C3.39997 1.94535 1.94649 3.39953 1.036 5.188ZM5.188 37.964C6.288 38.526 7.496 38.77 8.924 38.886C9.804 38.958 10.82 38.986 12 38.994V16H0V24.766C0 26.95 -1.51857e-07 28.682 0.114 30.076C0.23 31.504 0.474 32.71 1.034 33.814C1.94569 35.6013 3.39984 37.054 5.188 37.964Z" fill="#F5F5F5"/>
</svg>
