<svg width="43" height="43" viewBox="0 0 43 43" fill="none" xmlns="http://www.w3.org/2000/svg">
<path fill-rule="evenodd" clip-rule="evenodd" d="M13.4241 0C13.1682 2.50215e-05 12.9149 0.0512812 12.679 0.150748C12.4432 0.250214 12.2297 0.395878 12.0511 0.579156L0.544637 12.3847C0.195487 12.7428 5.01565e-05 13.2232 0 13.7233V28.766C0.000108616 29.2746 0.202226 29.7623 0.561897 30.1219L12.0683 41.6283C12.4279 41.988 12.9156 42.1901 13.4241 42.1902H28.766C29.2746 42.1901 29.7623 41.988 30.1219 41.6283L41.6283 30.1219C41.988 29.7623 42.1901 29.2746 42.1902 28.766V13.7233C42.1901 13.2232 41.9947 12.7428 41.6455 12.3847L30.1391 0.579156C29.9605 0.395878 29.747 0.250214 29.5111 0.150748C29.2753 0.0512812 29.022 2.50215e-05 28.766 0H13.4241ZM13.4241 19.1774C12.9155 19.1774 12.4278 19.3794 12.0681 19.739C11.7085 20.0987 11.5064 20.5865 11.5064 21.0951C11.5064 21.6037 11.7085 22.0915 12.0681 22.4511C12.4278 22.8108 12.9155 23.0128 13.4241 23.0128H28.766C29.2746 23.0128 29.7624 22.8108 30.1221 22.4511C30.4817 22.0915 30.6838 21.6037 30.6838 21.0951C30.6838 20.5865 30.4817 20.0987 30.1221 19.739C29.7624 19.3794 29.2746 19.1774 28.766 19.1774H13.4241Z" fill="#F5F5F5"/>
</svg>
