<svg width="45" height="35" viewBox="0 0 45 35" fill="none" xmlns="http://www.w3.org/2000/svg">
<path d="M42.3327 28.6296C26.9686 31.7025 33.3139 31.0196 22.1886 31.0196C11.0633 31.0196 18.4329 31.7025 2.04443 28.6296C2.04443 15.4302 11.0633 4.72998 22.1886 4.72998C33.3139 4.72998 42.3327 15.4302 42.3327 28.6296Z" fill="#F5F5F5"/>
<path d="M26.3921 2H17.9932C16.9991 2 16.1934 2.93245 16.1934 4.08252V7.24127V22.825H28.1919V7.24127V4.08252C28.1919 2.93245 27.386 2 26.3921 2Z" fill="#F5F5F5" stroke="#0B1854" stroke-width="2.40293"/>
<path d="M1.79736 23.7988H42.5835C42.9678 23.7988 43.1812 24.083 43.1812 24.3144V32.3232C43.1812 32.5546 42.9678 32.8388 42.5835 32.8388H1.79736C1.41304 32.8388 1.19873 32.5546 1.19873 32.3232V24.3144C1.19873 24.0829 1.41317 23.7988 1.79736 23.7988Z" fill="#F5F5F5" stroke="#0B1B54" stroke-width="2.40293"/>
</svg>
