<svg width="55" height="40" viewBox="0 0 55 40" fill="none" xmlns="http://www.w3.org/2000/svg">
<path d="M19 4V26C18.7926 26 27.2427 26 27 26C13.1102 26 23 26 3 26C3 9.52056 12 6 19 4Z" fill="#F5F5F5"/>
<path d="M36 4C43.742 6 52 10 52 26C31.7155 26 49.2962 26 36 26V4Z" fill="#F5F5F5"/>
<path d="M30.65 0H24.35C23.6043 0 23 1.16417 23 2.60003V6.54372V26H32V6.54372V2.60003C32.0001 1.16417 31.3955 0 30.65 0Z" fill="#F5F5F5"/>
<path d="M52.7702 30H51.9244H39.3919H37.1622H34.9324H20.0676H17.8378H15.6081H3.07549H2.22965C0.998379 30 0 30.6716 0 31.5V38.5C0 39.3284 0.998379 40 2.22976 40H52.7702C54.0015 40 55 39.3284 55 38.5V31.5C55 30.6716 54.0015 30 52.7702 30Z" fill="#F5F5F5"/>
</svg>
